<svg width="223" height="83" viewBox="0 0 223 83" fill="none" xmlns="http://www.w3.org/2000/svg">
<rect width="223" height="83" rx="16" fill="#28262C"/>
<path d="M62.1136 38V20.5455H68.2159C69.4318 20.5455 70.4347 20.7557 71.2244 21.1761C72.0142 21.5909 72.6023 22.1506 72.9886 22.8551C73.375 23.554 73.5682 24.3295 73.5682 25.1818C73.5682 25.9318 73.4347 26.5511 73.1676 27.0398C72.9063 27.5284 72.5597 27.9148 72.1278 28.1989C71.7017 28.483 71.2386 28.6932 70.7386 28.8295V29C71.2727 29.0341 71.8097 29.2216 72.3494 29.5625C72.8892 29.9034 73.3409 30.392 73.7045 31.0284C74.0682 31.6648 74.25 32.4432 74.25 33.3636C74.25 34.2386 74.0511 35.0256 73.6534 35.7244C73.2557 36.4233 72.6278 36.9773 71.7699 37.3864C70.9119 37.7955 69.7955 38 68.4205 38H62.1136ZM64.2273 36.125H68.4205C69.8011 36.125 70.7813 35.858 71.3608 35.3239C71.946 34.7841 72.2386 34.1307 72.2386 33.3636C72.2386 32.7727 72.0881 32.2273 71.7869 31.7273C71.4858 31.2216 71.0568 30.8182 70.5 30.517C69.9432 30.2102 69.2841 30.0568 68.5227 30.0568H64.2273V36.125ZM64.2273 28.2159H68.1477C68.7841 28.2159 69.358 28.0909 69.8693 27.8409C70.3864 27.5909 70.7955 27.2386 71.0966 26.7841C71.4034 26.3295 71.5568 25.7955 71.5568 25.1818C71.5568 24.4148 71.2898 23.7642 70.7557 23.2301C70.2216 22.6903 69.375 22.4205 68.2159 22.4205H64.2273V28.2159ZM82.7685 38.2727C81.5866 38.2727 80.5497 37.9915 79.6577 37.429C78.7713 36.8665 78.0781 36.0795 77.5781 35.0682C77.0838 34.0568 76.8366 32.875 76.8366 31.5227C76.8366 30.1591 77.0838 28.9687 77.5781 27.9517C78.0781 26.9347 78.7713 26.1449 79.6577 25.5824C80.5497 25.0199 81.5866 24.7386 82.7685 24.7386C83.9503 24.7386 84.9844 25.0199 85.8707 25.5824C86.7628 26.1449 87.456 26.9347 87.9503 27.9517C88.4503 28.9687 88.7003 30.1591 88.7003 31.5227C88.7003 32.875 88.4503 34.0568 87.9503 35.0682C87.456 36.0795 86.7628 36.8665 85.8707 37.429C84.9844 37.9915 83.9503 38.2727 82.7685 38.2727ZM82.7685 36.4659C83.6662 36.4659 84.4048 36.2358 84.9844 35.7756C85.5639 35.3153 85.9929 34.7102 86.2713 33.9602C86.5497 33.2102 86.6889 32.3977 86.6889 31.5227C86.6889 30.6477 86.5497 29.8324 86.2713 29.0767C85.9929 28.321 85.5639 27.7102 84.9844 27.2443C84.4048 26.7784 83.6662 26.5455 82.7685 26.5455C81.8707 26.5455 81.1321 26.7784 80.5526 27.2443C79.973 27.7102 79.544 28.321 79.2656 29.0767C78.9872 29.8324 78.848 30.6477 78.848 31.5227C78.848 32.3977 78.9872 33.2102 79.2656 33.9602C79.544 34.7102 79.973 35.3153 80.5526 35.7756C81.1321 36.2358 81.8707 36.4659 82.7685 36.4659ZM97.0888 38.2727C95.907 38.2727 94.87 37.9915 93.978 37.429C93.0916 36.8665 92.3984 36.0795 91.8984 35.0682C91.4041 34.0568 91.157 32.875 91.157 31.5227C91.157 30.1591 91.4041 28.9687 91.8984 27.9517C92.3984 26.9347 93.0916 26.1449 93.978 25.5824C94.87 25.0199 95.907 24.7386 97.0888 24.7386C98.2706 24.7386 99.3047 25.0199 100.191 25.5824C101.083 26.1449 101.776 26.9347 102.271 27.9517C102.771 28.9687 103.021 30.1591 103.021 31.5227C103.021 32.875 102.771 34.0568 102.271 35.0682C101.776 36.0795 101.083 36.8665 100.191 37.429C99.3047 37.9915 98.2706 38.2727 97.0888 38.2727ZM97.0888 36.4659C97.9865 36.4659 98.7251 36.2358 99.3047 35.7756C99.8842 35.3153 100.313 34.7102 100.592 33.9602C100.87 33.2102 101.009 32.3977 101.009 31.5227C101.009 30.6477 100.87 29.8324 100.592 29.0767C100.313 28.321 99.8842 27.7102 99.3047 27.2443C98.7251 26.7784 97.9865 26.5455 97.0888 26.5455C96.1911 26.5455 95.4524 26.7784 94.8729 27.2443C94.2933 27.7102 93.8643 28.321 93.5859 29.0767C93.3075 29.8324 93.1683 30.6477 93.1683 31.5227C93.1683 32.3977 93.3075 33.2102 93.5859 33.9602C93.8643 34.7102 94.2933 35.3153 94.8729 35.7756C95.4524 36.2358 96.1911 36.4659 97.0888 36.4659ZM107.966 33.2273L107.932 30.7386H108.341L114.068 24.9091H116.557L110.455 31.0795H110.284L107.966 33.2273ZM106.091 38V20.5455H108.102V38H106.091ZM114.409 38L109.295 31.5227L110.727 30.125L116.966 38H114.409Z" fill="#F9F5FF"/>
<path d="M104.114 61V43.5455H110.216C111.432 43.5455 112.435 43.7557 113.224 44.1761C114.014 44.5909 114.602 45.1506 114.989 45.8551C115.375 46.554 115.568 47.3295 115.568 48.1818C115.568 48.9318 115.435 49.5511 115.168 50.0398C114.906 50.5284 114.56 50.9148 114.128 51.1989C113.702 51.483 113.239 51.6932 112.739 51.8295V52C113.273 52.0341 113.81 52.2216 114.349 52.5625C114.889 52.9034 115.341 53.392 115.705 54.0284C116.068 54.6648 116.25 55.4432 116.25 56.3636C116.25 57.2386 116.051 58.0256 115.653 58.7244C115.256 59.4233 114.628 59.9773 113.77 60.3864C112.912 60.7955 111.795 61 110.42 61H104.114ZM106.227 59.125H110.42C111.801 59.125 112.781 58.858 113.361 58.3239C113.946 57.7841 114.239 57.1307 114.239 56.3636C114.239 55.7727 114.088 55.2273 113.787 54.7273C113.486 54.2216 113.057 53.8182 112.5 53.517C111.943 53.2102 111.284 53.0568 110.523 53.0568H106.227V59.125ZM106.227 51.2159H110.148C110.784 51.2159 111.358 51.0909 111.869 50.8409C112.386 50.5909 112.795 50.2386 113.097 49.7841C113.403 49.3295 113.557 48.7955 113.557 48.1818C113.557 47.4148 113.29 46.7642 112.756 46.2301C112.222 45.6903 111.375 45.4205 110.216 45.4205H106.227V51.2159ZM127.7 55.6477V47.9091H129.712V61H127.7V58.7841H127.564C127.257 59.4489 126.78 60.0142 126.132 60.4801C125.484 60.9403 124.666 61.1705 123.678 61.1705C122.859 61.1705 122.132 60.9915 121.496 60.6335C120.859 60.2699 120.359 59.7244 119.996 58.9972C119.632 58.2642 119.45 57.3409 119.45 56.2273V47.9091H121.462V56.0909C121.462 57.0455 121.729 57.8068 122.263 58.375C122.803 58.9432 123.49 59.2273 124.325 59.2273C124.825 59.2273 125.334 59.0994 125.851 58.8438C126.374 58.5881 126.811 58.196 127.163 57.6676C127.521 57.1392 127.7 56.4659 127.7 55.6477ZM133.396 61V47.9091H135.339V49.8864H135.475C135.714 49.2386 136.146 48.7131 136.771 48.3097C137.396 47.9062 138.1 47.7045 138.884 47.7045C139.032 47.7045 139.217 47.7074 139.438 47.7131C139.66 47.7187 139.827 47.7273 139.941 47.7386V49.7841C139.873 49.767 139.717 49.7415 139.472 49.7074C139.234 49.6676 138.981 49.6477 138.714 49.6477C138.077 49.6477 137.509 49.7812 137.009 50.0483C136.515 50.3097 136.123 50.6733 135.833 51.1392C135.549 51.5994 135.407 52.125 135.407 52.7159V61H133.396ZM151.598 50.8409L149.791 51.3523C149.678 51.0511 149.51 50.7585 149.288 50.4744C149.072 50.1847 148.777 49.946 148.402 49.7585C148.027 49.571 147.547 49.4773 146.962 49.4773C146.161 49.4773 145.493 49.6619 144.959 50.0312C144.43 50.3949 144.166 50.858 144.166 51.4205C144.166 51.9205 144.348 52.3153 144.712 52.6051C145.075 52.8949 145.643 53.1364 146.416 53.3295L148.359 53.8068C149.53 54.0909 150.402 54.5256 150.976 55.1108C151.55 55.6903 151.837 56.4375 151.837 57.3523C151.837 58.1023 151.621 58.7727 151.189 59.3636C150.763 59.9545 150.166 60.4205 149.399 60.7614C148.632 61.1023 147.74 61.2727 146.723 61.2727C145.388 61.2727 144.283 60.983 143.408 60.4034C142.533 59.8239 141.979 58.9773 141.746 57.8636L143.655 57.3864C143.837 58.0909 144.18 58.6193 144.686 58.9716C145.197 59.3239 145.865 59.5 146.689 59.5C147.626 59.5 148.371 59.3011 148.922 58.9034C149.479 58.5 149.757 58.017 149.757 57.4545C149.757 57 149.598 56.6193 149.28 56.3125C148.962 56 148.473 55.767 147.814 55.6136L145.632 55.1023C144.433 54.8182 143.553 54.3778 142.99 53.7812C142.433 53.179 142.155 52.4261 142.155 51.5227C142.155 50.7841 142.362 50.1307 142.777 49.5625C143.197 48.9943 143.768 48.5483 144.49 48.2244C145.217 47.9006 146.041 47.7386 146.962 47.7386C148.257 47.7386 149.274 48.0227 150.013 48.5909C150.757 49.1591 151.286 49.9091 151.598 50.8409ZM160.558 47.9091V49.6136H153.773V47.9091H160.558ZM155.751 44.7727H157.762V57.25C157.762 57.8182 157.844 58.2443 158.009 58.5284C158.18 58.8068 158.396 58.9943 158.657 59.0909C158.924 59.1818 159.205 59.2273 159.501 59.2273C159.722 59.2273 159.904 59.2159 160.046 59.1932C160.188 59.1648 160.302 59.142 160.387 59.125L160.796 60.9318C160.66 60.983 160.469 61.0341 160.225 61.0852C159.981 61.142 159.671 61.1705 159.296 61.1705C158.728 61.1705 158.171 61.0483 157.626 60.804C157.086 60.5597 156.637 60.1875 156.279 59.6875C155.927 59.1875 155.751 58.5568 155.751 57.7955V44.7727Z" fill="#F9F5FF"/>
</svg>
